<svg xmlns="http://www.w3.org/2000/svg" viewBox="0 0 1448 1086" preserveAspectRatio="xMidYMid meet">
<path fill="#f4f7fb" fill-rule="evenodd" d="M722,965 L721,966 L719,966 L718,967 L717,967 L715,969 L714,969 L714,970 L712,972 L712,973 L711,974 L711,976 L710,977 L710,981 L711,982 L711,984 L712,985 L712,986 L713,987 L713,988 L715,990 L716,990 L717,991 L718,991 L719,992 L728,992 L729,991 L730,991 L735,986 L735,985 L736,984 L736,981 L737,980 L737,978 L736,977 L736,974 L735,973 L735,972 L733,970 L733,969 L732,969 L730,967 L729,967 L728,966 L726,966 L725,965 ZM575,949 L573,951 L574,951 L575,952 L576,952 L577,953 L579,953 L580,954 L581,954 L582,955 L584,955 L585,956 L586,956 L587,957 L589,957 L590,958 L591,958 L592,959 L594,959 L595,960 L596,960 L597,961 L599,961 L600,962 L602,962 L603,963 L605,963 L606,964 L608,964 L609,965 L611,965 L612,966 L614,966 L615,967 L617,967 L618,968 L620,968 L621,969 L624,969 L625,970 L628,970 L629,971 L632,971 L633,972 L637,972 L638,973 L642,973 L643,974 L647,974 L648,975 L652,975 L653,976 L658,976 L659,977 L667,977 L668,978 L676,978 L677,979 L689,979 L690,980 L704,980 L705,979 L705,978 L704,977 L682,977 L681,976 L671,976 L670,975 L663,975 L662,974 L656,974 L655,973 L650,973 L649,972 L645,972 L644,971 L640,971 L639,970 L636,970 L635,969 L632,969 L631,968 L628,968 L627,967 L625,967 L624,966 L621,966 L620,965 L617,965 L616,964 L614,964 L613,963 L611,963 L610,962 L608,962 L607,961 L605,961 L604,960 L602,960 L601,959 L600,959 L599,958 L597,958 L596,957 L594,957 L593,956 L591,956 L590,955 L589,955 L588,954 L587,954 L586,953 L584,953 L583,952 L582,952 L581,951 L580,951 L579,950 L577,950 L576,949 ZM870,948 L869,949 L868,949 L867,950 L865,950 L864,951 L863,951 L862,952 L860,952 L859,953 L858,953 L857,954 L855,954 L854,955 L853,955 L852,956 L850,956 L849,957 L847,957 L846,958 L845,958 L844,959 L842,959 L841,960 L839,960 L838,961 L836,961 L835,962 L833,962 L832,963 L830,963 L829,964 L827,964 L826,965 L823,965 L822,966 L819,966 L818,967 L815,967 L814,968 L812,968 L811,969 L808,969 L807,970 L803,970 L802,971 L798,971 L797,972 L793,972 L792,973 L787,973 L786,974 L781,974 L780,975 L773,975 L772,976 L762,976 L761,977 L745,977 L744,978 L742,978 L742,980 L754,980 L755,979 L766,979 L767,978 L775,978 L776,977 L782,977 L783,976 L788,976 L789,975 L794,975 L795,974 L799,974 L800,973 L804,973 L805,972 L808,972 L809,971 L813,971 L814,970 L817,970 L818,969 L820,969 L821,968 L824,968 L825,967 L827,967 L828,966 L831,966 L832,965 L834,965 L835,964 L837,964 L838,963 L840,963 L841,962 L843,962 L844,961 L846,961 L847,960 L848,960 L849,959 L851,959 L852,958 L853,958 L854,957 L856,957 L857,956 L859,956 L860,955 L861,955 L862,954 L864,954 L865,953 L866,953 L867,952 L869,952 L870,951 L871,951 L872,950 L871,949 L871,948 ZM1075,823 L1066,832 L1066,833 L1071,828 L1071,827 ZM372,823 L376,827 L376,828 L381,833 L380,832 L380,831 ZM723,812 L723,817 L722,818 L722,820 L721,821 L721,822 L720,823 L720,824 L719,825 L719,826 L718,827 L718,828 L711,835 L710,835 L709,836 L708,836 L707,837 L706,837 L705,838 L704,838 L703,839 L700,839 L699,840 L695,840 L696,840 L697,841 L701,841 L702,842 L704,842 L705,843 L707,843 L708,844 L709,844 L711,846 L712,846 L717,851 L717,852 L719,854 L719,855 L720,856 L720,857 L721,858 L721,859 L722,860 L722,863 L723,864 L723,868 L723,867 L724,866 L724,861 L725,860 L725,858 L726,857 L726,856 L727,855 L727,854 L729,852 L729,851 L734,846 L735,846 L737,844 L738,844 L739,843 L741,843 L742,842 L744,842 L745,841 L749,841 L750,840 L751,840 L747,840 L746,839 L744,839 L743,838 L741,838 L740,837 L739,837 L738,836 L737,836 L735,834 L734,834 L730,830 L730,829 L728,827 L728,826 L727,825 L727,824 L726,823 L726,822 L725,821 L725,819 L724,818 L724,813 ZM1083,801 L1082,802 L1081,802 L1080,803 L1079,803 L1078,804 L1078,805 L1077,806 L1077,807 L1076,808 L1076,815 L1077,816 L1077,817 L1081,821 L1083,821 L1084,822 L1089,822 L1090,821 L1091,821 L1092,820 L1093,820 L1095,818 L1095,817 L1096,816 L1096,815 L1097,814 L1097,809 L1096,808 L1096,806 L1092,802 L1091,802 L1090,801 ZM356,801 L354,803 L353,803 L353,804 L351,806 L351,807 L350,808 L350,814 L351,815 L351,817 L354,820 L355,820 L356,821 L358,821 L359,822 L362,822 L363,821 L365,821 L366,820 L367,820 L369,818 L369,817 L370,816 L370,815 L371,814 L371,809 L370,808 L370,806 L368,804 L368,803 L367,803 L366,802 L365,802 L364,801 ZM1125,744 L1124,745 L1124,746 L1123,747 L1123,748 L1122,749 L1122,750 L1121,751 L1121,752 L1120,753 L1120,754 L1119,755 L1119,756 L1118,757 L1118,758 L1117,759 L1117,760 L1116,761 L1116,762 L1114,764 L1114,765 L1113,766 L1113,767 L1112,768 L1112,769 L1110,771 L1110,772 L1109,773 L1109,774 L1108,775 L1108,776 L1106,778 L1106,779 L1105,780 L1105,781 L1103,783 L1103,784 L1101,786 L1101,787 L1099,789 L1099,790 L1097,792 L1097,793 L1095,795 L1095,796 L1094,797 L1094,798 L1095,799 L1096,799 L1096,798 L1099,795 L1099,794 L1101,792 L1101,791 L1103,789 L1103,788 L1104,787 L1104,786 L1106,784 L1106,783 L1108,781 L1108,780 L1109,779 L1109,778 L1111,776 L1111,775 L1112,774 L1112,773 L1114,771 L1114,770 L1115,769 L1115,768 L1116,767 L1116,766 L1117,765 L1117,764 L1119,762 L1119,761 L1120,760 L1120,759 L1121,758 L1121,757 L1122,756 L1122,755 L1123,754 L1123,753 L1124,752 L1124,751 L1125,750 L1125,749 L1126,748 L1126,746 L1127,745 L1127,744 ZM319,744 L319,745 L320,746 L320,747 L321,748 L321,749 L322,750 L322,751 L323,752 L323,753 L324,754 L324,755 L325,756 L325,757 L326,758 L326,759 L327,760 L327,761 L328,762 L328,763 L329,764 L329,765 L330,766 L330,767 L332,769 L332,770 L333,771 L333,772 L334,773 L334,774 L336,776 L336,777 L337,778 L337,779 L339,781 L339,782 L340,783 L340,784 L342,786 L342,787 L344,789 L344,790 L346,792 L346,793 L348,795 L348,796 L350,798 L350,799 L351,799 L352,798 L352,796 L350,794 L350,793 L348,791 L348,790 L346,788 L346,787 L344,785 L344,784 L342,782 L342,781 L340,779 L340,778 L339,777 L339,776 L337,774 L337,773 L336,772 L336,771 L335,770 L335,769 L334,768 L334,767 L332,765 L332,764 L331,763 L331,762 L330,761 L330,760 L329,759 L329,758 L328,757 L328,756 L327,755 L327,754 L326,753 L326,752 L325,751 L325,750 L324,749 L324,748 L323,747 L323,746 L322,745 L322,744 ZM887,606 L886,607 L878,607 L877,608 L872,608 L871,609 L867,609 L866,610 L863,610 L862,611 L859,611 L858,612 L856,612 L855,613 L852,613 L851,614 L849,614 L848,615 L846,615 L845,616 L843,616 L842,617 L841,617 L840,618 L838,618 L837,619 L835,619 L834,620 L833,620 L832,621 L831,621 L830,622 L828,622 L827,623 L826,623 L825,624 L824,624 L823,625 L822,625 L821,626 L820,626 L819,627 L818,627 L817,628 L816,628 L815,629 L814,629 L813,630 L812,630 L811,631 L810,631 L809,632 L808,632 L807,633 L806,633 L804,635 L803,635 L802,636 L801,636 L800,637 L799,637 L797,639 L796,639 L795,640 L794,640 L792,642 L791,642 L789,644 L788,644 L786,646 L785,646 L784,647 L783,647 L781,649 L780,649 L778,651 L777,651 L775,653 L774,653 L771,656 L770,656 L768,658 L767,658 L764,661 L763,661 L760,664 L759,664 L757,666 L756,666 L753,669 L752,669 L750,671 L749,671 L746,674 L745,674 L743,676 L742,676 L740,678 L739,678 L737,680 L736,680 L734,682 L733,682 L731,684 L730,684 L730,685 L731,685 L733,687 L734,687 L735,688 L736,688 L737,689 L738,689 L739,690 L741,690 L742,691 L744,691 L745,692 L748,692 L749,693 L754,693 L755,692 L756,692 L757,691 L758,691 L760,689 L761,689 L763,687 L764,687 L767,684 L768,684 L770,682 L771,682 L774,679 L775,679 L778,676 L779,676 L782,673 L783,673 L786,670 L787,670 L790,667 L791,667 L794,664 L795,664 L797,662 L798,662 L801,659 L802,659 L804,657 L805,657 L807,655 L808,655 L810,653 L811,653 L813,651 L814,651 L816,649 L817,649 L818,648 L819,648 L820,647 L821,647 L823,645 L824,645 L825,644 L826,644 L828,642 L829,642 L830,641 L831,641 L832,640 L833,640 L834,639 L835,639 L836,638 L837,638 L838,637 L839,637 L840,636 L841,636 L842,635 L843,635 L844,634 L845,634 L846,633 L848,633 L849,632 L850,632 L851,631 L853,631 L854,630 L855,630 L856,629 L858,629 L859,628 L861,628 L862,627 L864,627 L865,626 L867,626 L868,625 L871,625 L872,624 L875,624 L876,623 L881,623 L882,622 L905,622 L906,623 L910,623 L911,624 L913,624 L914,625 L916,625 L917,626 L918,626 L919,627 L920,627 L922,629 L923,629 L930,636 L930,637 L931,638 L931,639 L932,640 L932,641 L933,642 L933,644 L934,645 L934,656 L933,657 L933,659 L932,660 L932,662 L930,664 L930,665 L928,667 L928,668 L923,673 L922,673 L919,676 L918,676 L917,677 L916,677 L914,679 L913,679 L912,680 L910,680 L909,681 L907,681 L906,682 L904,682 L903,683 L899,683 L898,684 L892,684 L891,685 L883,685 L882,684 L874,684 L873,683 L869,683 L868,682 L865,682 L864,681 L862,681 L861,680 L859,680 L858,679 L856,679 L855,678 L853,678 L852,677 L851,677 L850,676 L849,676 L848,675 L847,675 L846,674 L845,674 L844,673 L843,673 L841,671 L840,671 L839,670 L838,670 L836,668 L835,668 L833,666 L832,666 L831,665 L830,665 L827,662 L826,662 L824,660 L823,660 L821,658 L819,660 L818,660 L817,661 L816,661 L814,663 L813,663 L811,665 L810,665 L807,668 L806,668 L805,669 L805,670 L806,671 L806,672 L808,674 L808,675 L810,677 L810,678 L816,684 L816,685 L824,693 L825,693 L829,697 L830,697 L832,699 L833,699 L835,701 L836,701 L838,703 L839,703 L840,704 L841,704 L842,705 L843,705 L844,706 L845,706 L846,707 L847,707 L848,708 L850,708 L851,709 L852,709 L853,710 L855,710 L856,711 L858,711 L859,712 L861,712 L862,713 L865,713 L866,714 L870,714 L871,715 L877,715 L878,716 L899,716 L900,715 L906,715 L907,714 L911,714 L912,713 L915,713 L916,712 L918,712 L919,711 L921,711 L922,710 L924,710 L925,709 L926,709 L927,708 L928,708 L929,707 L930,707 L931,706 L932,706 L933,705 L934,705 L935,704 L936,704 L937,703 L938,703 L940,701 L941,701 L944,698 L945,698 L950,693 L951,693 L952,692 L952,691 L958,685 L958,684 L960,682 L960,681 L962,679 L962,678 L963,677 L963,675 L964,674 L964,673 L965,672 L965,671 L966,670 L966,668 L967,667 L967,662 L968,661 L968,648 L967,647 L967,644 L966,643 L966,641 L965,640 L965,639 L964,638 L964,637 L963,636 L963,635 L962,634 L962,633 L959,630 L959,629 L952,622 L951,622 L948,619 L947,619 L945,617 L944,617 L943,616 L942,616 L941,615 L940,615 L939,614 L938,614 L937,613 L935,613 L934,612 L932,612 L931,611 L930,611 L929,610 L926,610 L925,609 L922,609 L921,608 L917,608 L916,607 L909,607 L908,606 ZM878,695 L879,694 L886,694 L887,695 L888,695 L890,697 L890,698 L891,699 L891,702 L888,705 L887,705 L886,706 L879,706 L878,705 L877,705 L875,703 L875,702 L874,701 L874,698 L877,695 ZM907,692 L908,691 L916,691 L919,694 L919,698 L918,699 L918,700 L917,701 L916,701 L915,702 L914,702 L913,703 L906,703 L902,699 L902,697 L903,696 L903,695 L906,692 ZM851,688 L857,688 L858,689 L859,689 L863,693 L863,697 L860,700 L853,700 L852,699 L851,699 L848,696 L848,691 ZM934,678 L935,677 L939,677 L943,681 L943,685 L942,686 L942,687 L939,690 L938,690 L937,691 L936,691 L935,692 L933,692 L932,691 L931,691 L928,688 L928,687 L927,686 L927,685 L928,684 L928,683 L933,678 ZM829,677 L830,676 L833,676 L834,677 L835,677 L839,681 L839,682 L840,683 L840,685 L837,688 L832,688 L831,687 L830,687 L827,684 L827,683 L826,682 L826,679 L828,677 ZM949,655 L953,655 L956,658 L956,659 L957,660 L957,664 L956,665 L956,667 L952,671 L947,671 L944,668 L944,667 L943,666 L943,663 L944,662 L944,660 ZM948,635 L949,634 L950,635 L952,635 L955,638 L955,639 L956,640 L956,644 L952,648 L950,648 L949,647 L948,647 L945,644 L945,643 L944,642 L944,638 L947,635 ZM538,606 L537,607 L529,607 L528,608 L524,608 L523,609 L520,609 L519,610 L517,610 L516,611 L513,611 L512,612 L511,612 L510,613 L508,613 L507,614 L506,614 L505,615 L504,615 L503,616 L502,616 L501,617 L500,617 L498,619 L497,619 L494,622 L493,622 L486,629 L486,630 L483,633 L483,634 L482,635 L482,636 L481,637 L481,638 L480,639 L480,640 L479,641 L479,643 L478,644 L478,647 L477,648 L477,662 L478,663 L478,667 L479,668 L479,670 L480,671 L480,672 L481,673 L481,674 L482,675 L482,676 L483,677 L483,678 L484,679 L484,680 L486,682 L486,683 L488,685 L488,686 L499,697 L500,697 L503,700 L504,700 L506,702 L507,702 L509,704 L510,704 L511,705 L512,705 L513,706 L514,706 L515,707 L516,707 L517,708 L519,708 L520,709 L521,709 L522,710 L523,710 L524,711 L526,711 L527,712 L530,712 L531,713 L534,713 L535,714 L538,714 L539,715 L546,715 L547,716 L567,716 L568,715 L574,715 L575,714 L579,714 L580,713 L583,713 L584,712 L586,712 L587,711 L589,711 L590,710 L592,710 L593,709 L594,709 L595,708 L597,708 L598,707 L599,707 L600,706 L601,706 L602,705 L603,705 L604,704 L605,704 L606,703 L607,703 L608,702 L609,702 L611,700 L612,700 L614,698 L615,698 L617,696 L618,696 L623,691 L624,691 L630,685 L630,684 L635,679 L635,678 L637,676 L637,675 L639,673 L639,672 L641,670 L641,669 L640,669 L637,666 L636,666 L634,664 L633,664 L632,663 L631,663 L629,661 L628,661 L626,659 L625,659 L624,658 L621,661 L620,661 L618,663 L617,663 L614,666 L613,666 L612,667 L611,667 L609,669 L608,669 L607,670 L606,670 L604,672 L603,672 L602,673 L601,673 L600,674 L599,674 L598,675 L597,675 L596,676 L595,676 L594,677 L593,677 L592,678 L590,678 L589,679 L587,679 L586,680 L584,680 L583,681 L581,681 L580,682 L577,682 L576,683 L572,683 L571,684 L562,684 L561,685 L556,685 L555,684 L547,684 L546,683 L543,683 L542,682 L539,682 L538,681 L536,681 L535,680 L534,680 L533,679 L532,679 L531,678 L530,678 L529,677 L528,677 L526,675 L525,675 L516,666 L516,665 L514,663 L514,662 L513,661 L513,659 L512,658 L512,656 L511,655 L511,646 L512,645 L512,643 L513,642 L513,640 L514,639 L514,638 L516,636 L516,635 L521,630 L522,630 L524,628 L525,628 L526,627 L527,627 L528,626 L529,626 L530,625 L531,625 L532,624 L534,624 L535,623 L539,623 L540,622 L563,622 L564,623 L569,623 L570,624 L573,624 L574,625 L577,625 L578,626 L581,626 L582,627 L584,627 L585,628 L587,628 L588,629 L589,629 L590,630 L592,630 L593,631 L594,631 L595,632 L597,632 L598,633 L599,633 L600,634 L601,634 L602,635 L603,635 L604,636 L605,636 L606,637 L607,637 L608,638 L609,638 L610,639 L611,639 L612,640 L613,640 L614,641 L615,641 L617,643 L618,643 L619,644 L620,644 L621,645 L622,645 L624,647 L625,647 L626,648 L627,648 L629,650 L630,650 L631,651 L632,651 L634,653 L635,653 L637,655 L638,655 L640,657 L641,657 L643,659 L644,659 L647,662 L648,662 L650,664 L651,664 L654,667 L655,667 L658,670 L659,670 L662,673 L663,673 L666,676 L667,676 L670,679 L671,679 L674,682 L675,682 L677,684 L678,684 L681,687 L682,687 L685,690 L686,690 L688,692 L689,692 L691,694 L692,694 L694,696 L695,696 L696,697 L697,697 L699,699 L700,699 L701,700 L702,700 L703,701 L704,701 L705,702 L706,702 L707,703 L709,703 L710,704 L712,704 L713,705 L716,705 L717,706 L723,706 L724,707 L727,707 L728,706 L735,706 L736,705 L738,705 L739,704 L741,704 L742,703 L743,703 L744,702 L745,702 L746,701 L747,701 L748,700 L749,700 L750,699 L751,699 L745,699 L744,698 L740,698 L739,697 L737,697 L736,696 L734,696 L733,695 L732,695 L731,694 L729,694 L728,693 L727,693 L725,691 L724,691 L723,690 L722,690 L720,688 L719,688 L717,686 L716,686 L714,684 L713,684 L710,681 L709,681 L707,679 L706,679 L703,676 L702,676 L699,673 L698,673 L696,671 L695,671 L691,667 L690,667 L687,664 L686,664 L684,662 L683,662 L680,659 L679,659 L677,657 L676,657 L674,655 L673,655 L671,653 L670,653 L668,651 L667,651 L665,649 L664,649 L662,647 L661,647 L659,645 L658,645 L656,643 L655,643 L654,642 L653,642 L651,640 L650,640 L648,638 L647,638 L646,637 L645,637 L643,635 L642,635 L641,634 L640,634 L639,633 L638,633 L637,632 L636,632 L635,631 L634,631 L632,629 L631,629 L630,628 L629,628 L628,627 L627,627 L626,626 L624,626 L623,625 L622,625 L621,624 L620,624 L619,623 L618,623 L617,622 L615,622 L614,621 L613,621 L612,620 L610,620 L609,619 L608,619 L607,618 L605,618 L604,617 L603,617 L602,616 L600,616 L599,615 L596,615 L595,614 L593,614 L592,613 L590,613 L589,612 L586,612 L585,611 L582,611 L581,610 L578,610 L577,609 L572,609 L571,608 L566,608 L565,607 L558,607 L557,606 ZM559,694 L567,694 L568,695 L569,695 L571,697 L571,698 L572,699 L572,700 L571,701 L571,702 L568,705 L567,705 L566,706 L559,706 L558,705 L557,705 L555,703 L555,698 ZM532,691 L533,690 L534,690 L535,691 L538,691 L543,696 L543,700 L540,703 L537,703 L536,704 L535,704 L534,703 L531,703 L526,698 L526,695 L530,691 ZM588,689 L589,688 L594,688 L595,689 L596,689 L598,691 L598,695 L594,699 L593,699 L592,700 L586,700 L583,697 L583,693 L584,692 L584,691 L585,690 L586,690 L587,689 ZM506,677 L510,677 L511,678 L512,678 L513,679 L514,679 L517,682 L517,683 L518,684 L518,688 L515,691 L514,691 L513,692 L510,692 L509,691 L508,691 L507,690 L506,690 L504,688 L504,687 L503,686 L503,685 L502,684 L502,681 ZM612,677 L613,676 L617,676 L620,679 L620,682 L619,683 L619,684 L616,687 L615,687 L614,688 L610,688 L609,687 L608,687 L607,686 L607,681 L611,677 ZM492,656 L493,655 L496,655 L501,660 L501,661 L502,662 L502,666 L501,667 L501,668 L498,671 L494,671 L493,670 L492,670 L490,668 L490,667 L489,666 L489,665 L488,664 L488,660 L489,659 L489,658 L491,656 ZM494,635 L495,634 L496,634 L497,635 L498,635 L501,638 L501,642 L500,643 L500,644 L497,647 L496,647 L495,648 L494,648 L493,647 L492,647 L490,645 L490,644 L489,643 L489,641 L490,640 L490,638 L493,635 ZM724,588 L723,589 L723,596 L722,597 L722,602 L721,603 L721,606 L720,607 L720,609 L719,610 L719,612 L718,613 L718,615 L717,616 L717,617 L716,618 L716,620 L715,621 L715,622 L713,624 L713,625 L712,626 L712,627 L711,628 L711,629 L708,632 L708,633 L706,635 L706,636 L691,651 L690,651 L689,652 L689,653 L690,653 L693,656 L694,656 L697,659 L698,659 L701,662 L702,662 L704,664 L706,662 L707,662 L715,654 L715,653 L719,649 L719,648 L721,646 L721,645 L722,644 L722,643 L723,642 L724,642 L725,643 L725,644 L726,645 L726,646 L729,649 L729,650 L732,653 L732,654 L739,661 L740,661 L742,663 L743,663 L745,661 L746,661 L749,658 L750,658 L753,655 L754,655 L756,653 L757,653 L757,652 L743,638 L743,637 L740,634 L740,633 L737,630 L737,629 L736,628 L736,627 L735,626 L735,625 L734,624 L734,623 L733,622 L733,621 L732,620 L732,619 L731,618 L731,617 L730,616 L730,614 L729,613 L729,611 L728,610 L728,607 L727,606 L727,604 L726,603 L726,599 L725,598 L725,594 L724,593 ZM748,565 L748,566 L749,567 L749,569 L750,570 L750,573 L751,574 L751,575 L752,576 L752,578 L753,579 L753,580 L754,581 L754,582 L755,583 L755,585 L756,586 L756,587 L757,588 L757,589 L759,591 L759,592 L760,593 L760,594 L762,596 L762,597 L764,599 L764,600 L766,602 L766,603 L769,606 L769,607 L774,612 L774,613 L782,621 L783,621 L788,626 L789,626 L792,629 L795,629 L797,627 L798,627 L799,626 L800,626 L801,625 L802,625 L804,623 L805,623 L806,622 L807,622 L807,621 L806,621 L805,620 L804,620 L803,619 L802,619 L801,618 L800,618 L798,616 L797,616 L796,615 L795,615 L794,614 L793,614 L791,612 L790,612 L788,610 L787,610 L784,607 L783,607 L778,602 L777,602 L765,590 L765,589 L760,584 L760,583 L757,580 L757,579 L754,576 L754,575 L752,573 L752,572 L751,571 L751,570 L749,568 L749,567 L748,566 ZM699,565 L699,566 L697,568 L697,569 L696,570 L696,571 L694,573 L694,574 L692,576 L692,577 L689,580 L689,581 L685,585 L685,586 L667,604 L666,604 L662,608 L661,608 L658,611 L657,611 L655,613 L654,613 L653,614 L652,614 L650,616 L649,616 L648,617 L647,617 L646,618 L645,618 L644,619 L643,619 L642,620 L641,620 L640,621 L639,621 L639,622 L640,622 L641,623 L642,623 L644,625 L645,625 L646,626 L647,626 L649,628 L650,628 L651,629 L652,629 L653,630 L655,628 L656,628 L660,624 L661,624 L669,616 L670,616 L671,615 L671,614 L678,607 L678,606 L681,603 L681,602 L683,600 L683,599 L685,597 L685,596 L687,594 L687,593 L688,592 L688,591 L689,590 L689,589 L690,588 L690,587 L691,586 L691,585 L692,584 L692,583 L693,582 L693,581 L694,580 L694,579 L695,578 L695,576 L696,575 L696,573 L697,572 L697,570 L698,569 L698,567 L699,566 ZM1188,525 L1188,532 L1187,533 L1187,541 L1186,542 L1186,549 L1185,550 L1185,556 L1184,557 L1184,561 L1183,562 L1183,567 L1182,568 L1182,571 L1181,572 L1181,577 L1182,578 L1183,578 L1183,576 L1184,575 L1184,572 L1185,571 L1185,567 L1186,566 L1186,561 L1187,560 L1187,554 L1188,553 L1188,548 L1189,547 L1189,539 L1190,538 L1190,526 L1191,525 ZM256,525 L256,531 L257,532 L257,543 L258,544 L258,551 L259,552 L259,558 L260,559 L260,563 L261,564 L261,569 L262,570 L262,574 L263,575 L263,578 L265,578 L266,577 L266,575 L265,574 L265,570 L264,569 L264,565 L263,564 L263,559 L262,558 L262,553 L261,552 L261,545 L260,544 L260,534 L259,533 L259,525 ZM1062,498 L1062,502 L1061,503 L1061,505 L1060,506 L1060,507 L1059,508 L1059,509 L1051,517 L1049,517 L1048,518 L1046,518 L1045,519 L1041,519 L1041,520 L1045,520 L1046,521 L1048,521 L1049,522 L1050,522 L1051,523 L1052,523 L1054,525 L1055,525 L1057,527 L1057,528 L1059,530 L1059,531 L1060,532 L1060,533 L1061,534 L1061,537 L1062,538 L1062,541 L1062,538 L1063,537 L1063,534 L1064,533 L1064,532 L1065,531 L1065,530 L1066,529 L1066,528 L1070,524 L1071,524 L1073,522 L1075,522 L1076,521 L1078,521 L1079,520 L1084,520 L1083,520 L1082,519 L1079,519 L1078,518 L1076,518 L1075,517 L1074,517 L1073,516 L1072,516 L1070,514 L1069,514 L1068,513 L1068,512 L1065,509 L1065,508 L1064,507 L1064,505 L1063,504 L1063,501 L1062,500 ZM384,498 L384,503 L383,504 L383,506 L382,507 L382,508 L379,511 L379,512 L376,515 L375,515 L373,517 L371,517 L370,518 L368,518 L367,519 L363,519 L364,520 L368,520 L369,521 L371,521 L372,522 L373,522 L374,523 L375,523 L381,529 L381,530 L382,531 L382,532 L383,533 L383,535 L384,536 L384,540 L385,541 L385,536 L386,535 L386,533 L387,532 L387,531 L388,530 L388,529 L394,523 L395,523 L396,522 L397,522 L398,521 L400,521 L401,520 L405,520 L406,519 L402,519 L401,518 L399,518 L398,517 L397,517 L396,516 L395,516 L393,514 L392,514 L390,512 L390,511 L387,508 L387,506 L386,505 L386,503 L385,502 L385,498 ZM1187,497 L1186,498 L1185,498 L1184,499 L1183,499 L1181,501 L1181,502 L1179,504 L1179,512 L1180,513 L1180,514 L1184,518 L1185,518 L1186,519 L1194,519 L1195,518 L1196,518 L1200,514 L1200,513 L1201,512 L1201,504 L1199,502 L1199,501 L1197,499 L1196,499 L1195,498 L1194,498 L1193,497 ZM254,497 L253,498 L252,498 L251,499 L250,499 L248,501 L248,502 L246,504 L246,512 L247,513 L247,514 L251,518 L252,518 L253,519 L261,519 L262,518 L263,518 L267,514 L267,513 L268,512 L268,504 L266,502 L266,501 L264,499 L263,499 L262,498 L261,498 L260,497 ZM786,443 L785,444 L784,444 L780,448 L780,449 L778,451 L777,451 L776,452 L775,452 L774,453 L767,453 L766,452 L764,452 L756,444 L752,444 L750,446 L750,450 L751,451 L751,452 L753,454 L753,455 L756,458 L757,458 L759,460 L760,460 L761,461 L763,461 L764,462 L768,462 L769,463 L771,463 L772,462 L776,462 L777,461 L779,461 L780,460 L781,460 L783,458 L784,458 L787,455 L787,454 L789,452 L789,451 L790,450 L790,446 L788,444 L787,444 ZM660,443 L659,444 L658,444 L657,445 L657,446 L656,447 L656,449 L657,450 L657,451 L658,452 L658,453 L659,454 L659,455 L661,457 L662,457 L665,460 L666,460 L667,461 L669,461 L670,462 L674,462 L675,463 L677,463 L678,462 L682,462 L683,461 L685,461 L686,460 L687,460 L688,459 L689,459 L695,453 L695,452 L696,451 L696,450 L697,449 L697,446 L695,444 L691,444 L690,445 L689,445 L689,446 L684,451 L683,451 L682,452 L681,452 L680,453 L672,453 L671,452 L670,452 L665,447 L665,446 L663,444 L662,444 L661,443 ZM1177,428 L1175,430 L1176,431 L1176,432 L1177,433 L1177,436 L1178,437 L1178,439 L1179,440 L1179,443 L1180,444 L1180,447 L1181,448 L1181,452 L1182,453 L1182,457 L1183,458 L1183,462 L1184,463 L1184,468 L1185,469 L1185,474 L1186,475 L1186,481 L1187,482 L1187,489 L1188,490 L1188,492 L1190,492 L1190,484 L1189,483 L1189,477 L1188,476 L1188,471 L1187,470 L1187,465 L1186,464 L1186,459 L1185,458 L1185,454 L1184,453 L1184,450 L1183,449 L1183,446 L1182,445 L1182,442 L1181,441 L1181,438 L1180,437 L1180,434 L1179,433 L1179,431 L1178,430 L1178,428 ZM268,428 L268,431 L267,432 L267,434 L266,435 L266,438 L265,439 L265,442 L264,443 L264,446 L263,447 L263,450 L262,451 L262,455 L261,456 L261,460 L260,461 L260,465 L259,466 L259,472 L258,473 L258,479 L257,480 L257,490 L256,491 L257,492 L258,492 L259,491 L259,485 L260,484 L260,477 L261,476 L261,471 L262,470 L262,465 L263,464 L263,460 L264,459 L264,455 L265,454 L265,451 L266,450 L266,447 L267,446 L267,442 L268,441 L268,439 L269,438 L269,435 L270,434 L270,431 L271,430 L271,429 L270,428 ZM712,284 L711,285 L704,285 L703,286 L700,286 L699,287 L696,287 L695,288 L692,288 L691,289 L689,289 L688,290 L686,290 L685,291 L684,291 L683,292 L681,292 L680,293 L679,293 L678,294 L677,294 L676,295 L675,295 L674,296 L673,296 L672,297 L671,297 L670,298 L669,298 L667,300 L666,300 L665,301 L664,301 L662,303 L661,303 L658,306 L657,306 L655,308 L654,308 L635,327 L635,328 L632,331 L632,332 L629,335 L629,336 L627,338 L627,339 L626,340 L626,341 L624,343 L624,344 L623,345 L623,346 L621,348 L621,349 L620,350 L620,351 L619,352 L619,353 L618,354 L618,355 L617,356 L617,357 L616,358 L616,360 L615,361 L615,362 L614,363 L614,365 L613,366 L613,367 L612,368 L612,370 L611,371 L611,373 L610,374 L610,376 L609,377 L609,380 L608,381 L608,384 L607,385 L607,389 L606,390 L606,395 L605,396 L605,402 L604,403 L604,425 L605,426 L605,433 L606,434 L606,438 L607,439 L607,442 L608,443 L608,446 L609,447 L609,449 L610,450 L610,452 L611,453 L611,455 L612,456 L612,457 L613,458 L613,459 L614,460 L614,462 L616,464 L616,465 L617,466 L617,467 L618,468 L618,469 L619,470 L619,471 L621,473 L621,474 L623,476 L623,477 L626,480 L626,481 L629,484 L629,485 L656,512 L656,513 L660,517 L660,518 L661,519 L661,520 L662,521 L662,522 L663,523 L663,525 L664,526 L664,535 L663,536 L663,538 L662,539 L662,540 L660,542 L660,543 L657,546 L657,547 L656,548 L655,547 L655,545 L654,544 L654,542 L653,541 L653,540 L652,539 L652,538 L651,537 L651,536 L650,535 L650,534 L648,532 L648,531 L642,525 L641,525 L637,521 L636,521 L634,519 L633,519 L632,518 L631,518 L630,517 L629,517 L628,516 L627,516 L626,515 L624,515 L623,514 L622,514 L621,513 L619,513 L618,512 L615,512 L614,511 L611,511 L610,510 L606,510 L605,509 L600,509 L599,508 L595,508 L594,507 L591,507 L590,506 L588,506 L587,505 L586,505 L585,504 L583,504 L582,503 L581,503 L580,502 L579,502 L578,501 L577,501 L576,500 L575,500 L573,498 L572,498 L570,496 L569,496 L566,493 L565,493 L556,484 L556,483 L553,480 L553,479 L551,477 L551,476 L550,475 L550,474 L549,473 L549,472 L548,471 L548,470 L547,469 L547,467 L546,466 L546,464 L545,463 L545,459 L544,458 L544,441 L545,440 L545,437 L546,436 L546,434 L547,433 L547,431 L548,430 L548,429 L549,428 L549,427 L550,426 L550,425 L551,424 L551,423 L554,420 L554,419 L558,415 L558,414 L578,394 L578,393 L581,390 L581,389 L583,387 L583,386 L585,384 L585,383 L586,382 L586,381 L587,380 L587,379 L588,378 L588,377 L589,376 L589,374 L590,373 L590,371 L591,370 L591,368 L592,367 L592,350 L591,349 L591,346 L590,345 L590,343 L589,342 L589,341 L588,340 L588,339 L587,338 L587,337 L586,336 L586,335 L576,325 L575,325 L574,324 L573,324 L572,323 L571,323 L570,322 L569,322 L568,321 L565,321 L564,320 L560,320 L559,319 L550,319 L549,320 L545,320 L544,321 L542,321 L541,322 L539,322 L537,324 L536,324 L535,325 L534,325 L529,330 L529,331 L527,333 L527,334 L526,335 L526,337 L525,338 L525,347 L526,348 L526,350 L528,352 L528,353 L531,356 L532,356 L533,357 L535,357 L536,358 L539,358 L540,357 L542,357 L545,354 L545,353 L546,352 L546,350 L545,349 L545,348 L542,351 L538,351 L534,347 L534,342 L535,341 L535,339 L541,333 L542,333 L543,332 L555,332 L556,333 L557,333 L558,334 L559,334 L561,336 L562,336 L564,338 L564,339 L566,341 L566,342 L567,343 L567,344 L568,345 L568,346 L569,347 L569,352 L570,353 L570,356 L569,357 L569,363 L568,364 L568,366 L567,367 L567,368 L566,369 L566,370 L565,371 L565,372 L564,373 L564,374 L561,377 L561,378 L544,395 L543,395 L530,408 L530,409 L526,413 L526,414 L524,416 L524,417 L522,419 L522,420 L521,421 L521,422 L520,423 L520,424 L519,425 L519,426 L518,427 L518,428 L517,429 L517,430 L516,431 L516,433 L515,434 L515,437 L514,438 L514,441 L513,442 L513,447 L512,448 L512,465 L513,466 L513,472 L514,473 L514,476 L515,477 L515,479 L516,480 L516,482 L517,483 L517,484 L518,485 L518,486 L519,487 L519,488 L520,489 L520,490 L521,491 L521,492 L522,493 L522,494 L524,496 L524,497 L529,502 L529,503 L535,509 L536,509 L539,512 L540,512 L542,514 L543,514 L544,515 L545,515 L546,516 L547,516 L548,517 L549,517 L550,518 L551,518 L552,519 L554,519 L555,520 L557,520 L558,521 L560,521 L561,522 L565,522 L566,523 L576,523 L577,524 L590,524 L591,525 L596,525 L597,526 L601,526 L602,527 L605,527 L606,528 L608,528 L609,529 L611,529 L612,530 L614,530 L615,531 L616,531 L618,533 L619,533 L620,534 L621,534 L623,536 L624,536 L632,544 L632,545 L634,547 L634,548 L635,549 L635,550 L636,551 L636,553 L637,554 L637,557 L638,558 L638,560 L636,562 L635,562 L634,563 L632,563 L631,564 L629,564 L628,565 L627,565 L626,566 L623,566 L622,567 L620,567 L619,568 L616,568 L615,569 L612,569 L611,570 L607,570 L606,571 L602,571 L601,572 L597,572 L596,573 L589,573 L588,574 L578,574 L577,575 L553,575 L552,574 L545,574 L544,573 L541,573 L540,572 L537,572 L536,571 L534,571 L533,570 L532,570 L531,569 L530,569 L529,568 L528,568 L527,567 L526,567 L525,566 L524,566 L523,565 L522,565 L520,563 L519,563 L515,559 L514,559 L511,556 L511,555 L507,551 L507,550 L505,548 L505,547 L504,546 L504,545 L503,544 L503,543 L502,542 L502,541 L501,540 L501,538 L500,537 L500,535 L499,534 L499,531 L498,530 L498,508 L499,507 L499,491 L498,490 L498,485 L497,484 L497,481 L496,480 L496,479 L495,478 L495,476 L494,475 L494,474 L493,473 L493,472 L491,470 L491,469 L487,465 L487,464 L486,464 L482,460 L481,460 L479,458 L478,458 L477,457 L476,457 L475,456 L474,456 L473,455 L471,455 L470,454 L467,454 L466,453 L454,453 L453,454 L450,454 L449,455 L447,455 L446,456 L445,456 L444,457 L443,457 L441,459 L440,459 L433,466 L433,467 L432,468 L432,469 L431,470 L431,473 L430,474 L430,483 L431,484 L431,486 L432,487 L432,488 L434,490 L434,491 L435,491 L437,493 L438,493 L439,494 L441,494 L442,495 L445,495 L446,494 L448,494 L452,490 L452,485 L451,484 L451,485 L448,488 L443,488 L440,485 L440,484 L439,483 L439,477 L440,476 L440,475 L446,469 L447,469 L448,468 L450,468 L451,467 L459,467 L460,468 L462,468 L463,469 L464,469 L466,471 L467,471 L471,475 L471,476 L473,478 L473,480 L474,481 L474,483 L475,484 L475,497 L474,498 L474,501 L473,502 L473,504 L472,505 L472,507 L471,508 L471,510 L470,511 L470,513 L469,514 L469,516 L468,517 L468,520 L467,521 L467,525 L466,526 L466,543 L467,544 L467,548 L468,549 L468,552 L469,553 L469,555 L470,556 L470,558 L471,559 L471,560 L472,561 L472,562 L473,563 L473,564 L474,565 L474,566 L475,567 L475,568 L477,570 L477,571 L479,573 L479,574 L482,577 L482,578 L487,583 L488,583 L491,586 L492,586 L495,589 L496,589 L498,591 L499,591 L500,592 L501,592 L502,593 L503,593 L504,594 L505,594 L506,595 L508,595 L509,596 L511,596 L512,597 L513,597 L514,598 L515,598 L516,597 L519,597 L520,596 L523,596 L524,595 L528,595 L529,594 L532,594 L533,593 L539,593 L540,592 L547,592 L548,591 L558,591 L559,590 L569,590 L570,589 L577,589 L578,588 L585,588 L586,587 L592,587 L593,586 L599,586 L600,585 L604,585 L605,584 L609,584 L610,583 L613,583 L614,582 L617,582 L618,581 L620,581 L621,580 L623,580 L624,579 L626,579 L627,578 L629,578 L630,577 L632,577 L633,576 L635,576 L636,575 L637,575 L638,574 L639,574 L640,573 L641,573 L642,572 L643,572 L644,571 L645,571 L646,570 L647,570 L648,569 L649,569 L650,568 L651,568 L653,566 L654,566 L656,564 L657,564 L660,561 L661,561 L671,551 L671,550 L673,548 L673,547 L674,546 L674,545 L675,544 L675,543 L676,542 L676,541 L677,540 L677,537 L678,536 L678,524 L677,523 L677,521 L676,520 L676,518 L675,517 L675,516 L674,515 L674,514 L673,513 L673,512 L670,509 L670,508 L666,504 L666,503 L638,475 L638,474 L635,471 L635,470 L632,467 L632,466 L631,465 L631,464 L629,462 L629,461 L628,460 L628,459 L627,458 L627,457 L626,456 L626,455 L625,454 L625,453 L624,452 L624,451 L623,450 L623,448 L622,447 L622,446 L621,445 L621,442 L620,441 L620,439 L619,438 L619,434 L618,433 L618,429 L617,428 L617,420 L616,419 L616,403 L617,402 L617,395 L618,394 L618,389 L619,388 L619,385 L620,384 L620,381 L621,380 L621,377 L622,376 L622,374 L623,373 L623,372 L624,371 L624,369 L625,368 L625,366 L626,365 L626,364 L627,363 L627,362 L628,361 L628,360 L629,359 L629,358 L630,357 L630,356 L631,355 L631,354 L632,353 L632,352 L633,351 L633,350 L635,348 L635,347 L636,346 L636,345 L639,342 L639,341 L642,338 L642,337 L646,333 L646,332 L656,322 L657,322 L662,317 L663,317 L666,314 L667,314 L669,312 L670,312 L672,310 L673,310 L674,309 L675,309 L676,308 L677,308 L678,307 L679,307 L680,306 L681,306 L682,305 L683,305 L684,304 L685,304 L686,303 L688,303 L689,302 L690,302 L691,301 L693,301 L694,300 L696,300 L697,299 L700,299 L701,298 L705,298 L706,297 L713,297 L714,296 L734,296 L735,297 L741,297 L742,298 L746,298 L747,299 L750,299 L751,300 L753,300 L754,301 L756,301 L757,302 L759,302 L760,303 L762,303 L763,304 L764,304 L765,305 L766,305 L767,306 L768,306 L769,307 L770,307 L771,308 L772,308 L773,309 L774,309 L775,310 L776,310 L778,312 L779,312 L782,315 L783,315 L786,318 L787,318 L793,324 L794,324 L798,328 L798,329 L804,335 L804,336 L807,339 L807,340 L810,343 L810,344 L812,346 L812,347 L813,348 L813,349 L814,350 L814,351 L816,353 L816,354 L817,355 L817,356 L818,357 L818,358 L819,359 L819,360 L820,361 L820,362 L821,363 L821,365 L822,366 L822,367 L823,368 L823,370 L824,371 L824,373 L825,374 L825,376 L826,377 L826,380 L827,381 L827,384 L828,385 L828,389 L829,390 L829,395 L830,396 L830,406 L831,407 L831,417 L830,418 L830,426 L829,427 L829,432 L828,433 L828,437 L827,438 L827,440 L826,441 L826,444 L825,445 L825,447 L824,448 L824,449 L823,450 L823,452 L821,454 L821,456 L820,457 L820,458 L818,460 L818,461 L817,462 L817,463 L815,465 L815,466 L813,468 L813,469 L810,472 L810,473 L801,482 L801,483 L794,490 L793,490 L784,499 L784,500 L777,507 L777,508 L774,511 L774,512 L773,513 L773,514 L772,515 L772,516 L771,517 L771,518 L770,519 L770,521 L769,522 L769,525 L768,526 L768,535 L769,536 L769,539 L770,540 L770,542 L771,543 L771,544 L772,545 L772,546 L773,547 L773,548 L776,551 L776,552 L786,562 L787,562 L790,565 L791,565 L793,567 L794,567 L795,568 L796,568 L798,570 L799,570 L800,571 L801,571 L802,572 L803,572 L804,573 L805,573 L806,574 L807,574 L808,575 L809,575 L810,576 L812,576 L813,577 L814,577 L815,578 L817,578 L818,579 L820,579 L821,580 L824,580 L825,581 L827,581 L828,582 L831,582 L832,583 L835,583 L836,584 L840,584 L841,585 L845,585 L846,586 L851,586 L852,587 L858,587 L859,588 L866,588 L867,589 L877,589 L878,590 L888,590 L889,591 L899,591 L900,592 L907,592 L908,593 L914,593 L915,594 L918,594 L919,595 L922,595 L923,596 L926,596 L927,597 L929,597 L930,598 L932,598 L933,597 L934,597 L935,596 L937,596 L938,595 L939,595 L940,594 L942,594 L943,593 L944,593 L945,592 L946,592 L947,591 L948,591 L950,589 L951,589 L954,586 L955,586 L967,574 L967,573 L969,571 L969,570 L971,568 L971,567 L973,565 L973,564 L974,563 L974,562 L975,561 L975,560 L976,559 L976,557 L977,556 L977,555 L978,554 L978,552 L979,551 L979,548 L980,547 L980,543 L981,542 L981,525 L980,524 L980,519 L979,518 L979,516 L978,515 L978,513 L977,512 L977,510 L976,509 L976,507 L975,506 L975,505 L974,504 L974,502 L973,501 L973,497 L972,496 L972,484 L973,483 L973,481 L974,480 L974,478 L976,476 L976,475 L981,470 L982,470 L983,469 L984,469 L985,468 L986,468 L987,467 L992,467 L993,466 L994,467 L998,467 L999,468 L1000,468 L1001,469 L1002,469 L1006,473 L1006,474 L1007,475 L1007,476 L1008,477 L1008,482 L1007,483 L1007,484 L1003,488 L999,488 L997,486 L997,485 L996,484 L996,485 L995,486 L995,489 L996,490 L996,491 L998,493 L999,493 L1000,494 L1002,494 L1003,495 L1004,495 L1005,494 L1008,494 L1009,493 L1010,493 L1014,489 L1014,488 L1016,486 L1016,484 L1017,483 L1017,474 L1016,473 L1016,471 L1015,470 L1015,468 L1014,467 L1014,466 L1011,463 L1011,462 L1009,460 L1008,460 L1005,457 L1004,457 L1003,456 L1002,456 L1001,455 L1000,455 L999,454 L997,454 L996,453 L992,453 L991,452 L983,452 L982,453 L978,453 L977,454 L975,454 L974,455 L972,455 L971,456 L970,456 L969,457 L968,457 L966,459 L965,459 L961,463 L960,463 L959,464 L959,465 L956,468 L956,469 L954,471 L954,472 L953,473 L953,474 L952,475 L952,476 L951,477 L951,479 L950,480 L950,483 L949,484 L949,489 L948,490 L948,508 L949,509 L949,529 L948,530 L948,533 L947,534 L947,537 L946,538 L946,539 L945,540 L945,541 L944,542 L944,543 L943,544 L943,545 L942,546 L942,547 L941,548 L941,549 L938,552 L938,553 L929,562 L928,562 L926,564 L925,564 L924,565 L923,565 L922,566 L921,566 L920,567 L919,567 L918,568 L917,568 L916,569 L915,569 L914,570 L912,570 L911,571 L909,571 L908,572 L905,572 L904,573 L900,573 L899,574 L891,574 L890,575 L870,575 L869,574 L859,574 L858,573 L852,573 L851,572 L846,572 L845,571 L840,571 L839,570 L836,570 L835,569 L832,569 L831,568 L828,568 L827,567 L825,567 L824,566 L821,566 L820,565 L818,565 L817,564 L816,564 L815,563 L813,563 L812,562 L810,562 L808,560 L809,559 L809,555 L810,554 L810,552 L811,551 L811,549 L812,548 L812,547 L814,545 L814,544 L821,537 L822,537 L825,534 L826,534 L828,532 L829,532 L830,531 L831,531 L832,530 L833,530 L834,529 L836,529 L837,528 L839,528 L840,527 L842,527 L843,526 L846,526 L847,525 L852,525 L853,524 L861,524 L862,523 L877,523 L878,522 L883,522 L884,521 L887,521 L888,520 L891,520 L892,519 L894,519 L895,518 L896,518 L897,517 L898,517 L899,516 L900,516 L901,515 L902,515 L903,514 L904,514 L906,512 L907,512 L910,509 L911,509 L921,499 L921,498 L924,495 L924,494 L925,493 L925,492 L927,490 L927,489 L928,488 L928,487 L929,486 L929,485 L930,484 L930,482 L931,481 L931,479 L932,478 L932,476 L933,475 L933,471 L934,470 L934,465 L935,464 L935,451 L934,450 L934,445 L933,444 L933,440 L932,439 L932,436 L931,435 L931,433 L930,432 L930,431 L929,430 L929,428 L928,427 L928,426 L927,425 L927,424 L926,423 L926,422 L924,420 L924,419 L923,418 L923,417 L921,415 L921,414 L918,411 L918,410 L914,406 L914,405 L907,398 L906,398 L896,388 L895,388 L891,384 L891,383 L885,377 L885,376 L883,374 L883,373 L881,371 L881,370 L880,369 L880,367 L879,366 L879,365 L878,364 L878,362 L877,361 L877,348 L878,347 L878,345 L879,344 L879,343 L880,342 L880,341 L887,334 L888,334 L889,333 L890,333 L891,332 L902,332 L903,333 L905,333 L911,339 L911,340 L912,341 L912,347 L911,348 L911,349 L910,350 L909,350 L908,351 L904,351 L901,348 L901,349 L900,350 L900,352 L901,353 L901,354 L904,357 L906,357 L907,358 L910,358 L911,357 L913,357 L914,356 L915,356 L918,353 L918,352 L920,350 L920,348 L921,347 L921,337 L920,336 L920,335 L919,334 L919,333 L918,332 L918,331 L911,324 L910,324 L909,323 L908,323 L907,322 L906,322 L905,321 L903,321 L902,320 L898,320 L897,319 L887,319 L886,320 L882,320 L881,321 L879,321 L878,322 L876,322 L875,323 L874,323 L873,324 L872,324 L870,326 L869,326 L866,329 L865,329 L864,330 L864,331 L860,335 L860,336 L858,338 L858,339 L857,340 L857,342 L856,343 L856,344 L855,345 L855,348 L854,349 L854,363 L855,364 L855,368 L856,369 L856,371 L857,372 L857,374 L858,375 L858,376 L859,377 L859,378 L860,379 L860,380 L861,381 L861,382 L862,383 L862,384 L864,386 L864,387 L866,389 L866,390 L869,393 L869,394 L885,410 L885,411 L891,417 L891,418 L893,420 L893,421 L895,423 L895,424 L896,425 L896,426 L897,427 L897,428 L898,429 L898,430 L899,431 L899,433 L900,434 L900,436 L901,437 L901,440 L902,441 L902,459 L901,460 L901,463 L900,464 L900,467 L899,468 L899,470 L898,471 L898,472 L897,473 L897,474 L896,475 L896,476 L894,478 L894,479 L891,482 L891,483 L885,489 L884,489 L879,494 L878,494 L876,496 L875,496 L874,497 L873,497 L871,499 L870,499 L869,500 L868,500 L867,501 L865,501 L864,502 L863,502 L862,503 L860,503 L859,504 L857,504 L856,505 L853,505 L852,506 L849,506 L848,507 L845,507 L844,508 L840,508 L839,509 L836,509 L835,510 L832,510 L831,511 L829,511 L828,512 L827,512 L826,513 L824,513 L823,514 L822,514 L821,515 L820,515 L819,516 L818,516 L817,517 L816,517 L815,518 L814,518 L813,519 L812,519 L809,522 L808,522 L805,525 L804,525 L801,528 L801,529 L797,533 L797,534 L795,536 L795,537 L794,538 L794,540 L793,541 L793,543 L792,544 L792,546 L791,547 L790,547 L789,546 L789,545 L786,542 L786,541 L785,540 L785,539 L784,538 L784,537 L783,536 L783,532 L782,531 L782,529 L783,528 L783,525 L784,524 L784,522 L785,521 L785,520 L786,519 L786,518 L789,515 L789,514 L797,506 L797,505 L818,484 L818,483 L821,480 L821,479 L824,476 L824,475 L826,473 L826,472 L828,470 L828,469 L829,468 L829,467 L830,466 L830,465 L831,464 L831,463 L832,462 L832,461 L833,460 L833,459 L834,458 L834,456 L835,455 L835,454 L836,453 L836,451 L837,450 L837,448 L838,447 L838,444 L839,443 L839,440 L840,439 L840,435 L841,434 L841,429 L842,428 L842,399 L841,398 L841,391 L840,390 L840,386 L839,385 L839,382 L838,381 L838,378 L837,377 L837,374 L836,373 L836,371 L835,370 L835,368 L834,367 L834,366 L833,365 L833,363 L832,362 L832,361 L831,360 L831,358 L830,357 L830,356 L829,355 L829,354 L828,353 L828,352 L827,351 L827,350 L826,349 L826,348 L825,347 L825,346 L824,345 L824,344 L822,342 L822,341 L820,339 L820,338 L819,337 L819,336 L817,334 L817,333 L814,330 L814,329 L811,326 L811,325 L794,308 L793,308 L790,305 L789,305 L787,303 L786,303 L784,301 L783,301 L781,299 L780,299 L779,298 L778,298 L777,297 L776,297 L775,296 L774,296 L773,295 L772,295 L771,294 L770,294 L769,293 L768,293 L767,292 L765,292 L764,291 L763,291 L762,290 L760,290 L759,289 L756,289 L755,288 L753,288 L752,287 L749,287 L748,286 L743,286 L742,285 L737,285 L736,284 ZM524,580 L531,580 L535,584 L535,585 L534,586 L534,587 L533,588 L532,588 L531,589 L527,589 L526,588 L524,588 L522,586 L522,582 ZM917,580 L918,579 L923,579 L926,582 L926,584 L925,585 L925,586 L924,587 L923,587 L922,588 L920,588 L919,589 L917,589 L916,588 L915,588 L913,586 L913,583 L916,580 ZM502,571 L503,570 L507,570 L508,571 L509,571 L510,572 L511,572 L515,576 L515,577 L516,578 L516,581 L515,582 L515,583 L514,584 L513,584 L512,585 L506,585 L504,583 L503,583 L500,580 L500,579 L499,578 L499,574 L500,573 L500,572 L501,571 ZM940,570 L941,569 L945,569 L949,573 L949,577 L948,578 L948,579 L945,582 L944,582 L942,584 L940,584 L939,585 L936,585 L935,584 L934,584 L932,582 L932,581 L931,580 L931,578 L932,577 L932,576 L938,570 ZM956,551 L962,551 L964,553 L964,554 L965,555 L965,559 L964,560 L964,561 L963,562 L963,563 L959,567 L958,567 L957,568 L953,568 L949,564 L949,560 L950,559 L950,558 L951,557 L951,556 ZM486,552 L487,551 L489,551 L490,552 L491,552 L492,553 L493,553 L495,555 L495,556 L497,558 L497,560 L498,561 L498,564 L497,565 L497,566 L495,568 L494,568 L493,569 L491,569 L490,568 L489,568 L488,567 L487,567 L485,565 L485,564 L483,562 L483,559 L482,558 L482,557 L483,556 L483,555 L484,554 L484,553 L485,552 ZM964,529 L965,528 L969,528 L971,530 L971,531 L972,532 L972,539 L971,540 L971,541 L967,545 L963,545 L960,542 L960,534 L961,533 L961,532 L962,531 L962,530 L963,529 ZM479,528 L482,528 L483,529 L484,529 L485,530 L485,531 L486,532 L486,533 L487,534 L487,542 L484,545 L480,545 L479,544 L478,544 L477,543 L477,542 L476,541 L476,540 L475,539 L475,532 ZM963,505 L967,505 L969,507 L969,508 L970,509 L970,510 L971,511 L971,517 L970,518 L970,519 L968,521 L965,521 L961,517 L961,515 L960,514 L960,509 L961,508 L961,507 ZM883,506 L884,505 L887,505 L888,506 L889,506 L890,507 L890,509 L887,512 L886,512 L885,513 L881,513 L879,511 L879,509 L882,506 ZM559,506 L560,505 L562,505 L563,506 L564,506 L567,509 L567,511 L564,514 L562,514 L561,513 L560,513 L556,509 L557,508 L557,507 L558,506 ZM481,505 L483,505 L486,508 L486,509 L487,510 L487,514 L486,515 L486,517 L485,518 L485,519 L483,521 L482,521 L481,522 L480,522 L477,519 L477,518 L476,517 L476,512 L477,511 L477,509 ZM901,490 L902,489 L906,489 L907,490 L908,490 L909,491 L909,492 L910,493 L910,497 L909,498 L909,499 L905,503 L904,503 L903,504 L902,504 L901,505 L897,505 L896,504 L895,504 L894,503 L894,502 L893,501 L893,499 L894,498 L894,496 L900,490 ZM540,489 L544,489 L545,490 L546,490 L547,491 L548,491 L551,494 L551,495 L552,496 L552,497 L553,498 L553,502 L550,505 L544,505 L542,503 L541,503 L538,500 L538,499 L537,498 L537,497 L536,496 L536,494 L537,493 L537,492 ZM961,485 L964,485 L966,487 L966,495 L965,496 L965,497 L964,498 L961,498 L959,496 L959,495 L958,494 L958,489 L959,488 L959,487 ZM484,485 L485,485 L488,488 L488,489 L489,490 L489,494 L488,495 L488,496 L485,499 L484,499 L481,496 L481,494 L480,493 L480,492 L481,491 L481,488 ZM477,471 L478,470 L481,470 L485,474 L485,477 L483,479 L480,479 L478,477 L478,476 L477,475 ZM967,469 L969,469 L971,471 L971,474 L970,475 L970,476 L968,478 L967,478 L966,479 L965,479 L962,476 L962,475 L963,474 L963,473 ZM915,466 L916,465 L921,465 L923,467 L923,468 L924,469 L924,474 L923,475 L923,477 L922,478 L922,479 L918,483 L917,483 L916,484 L913,484 L909,480 L909,474 L910,473 L910,471 L912,469 L912,468 L914,466 ZM526,466 L527,465 L529,465 L530,466 L531,466 L535,470 L535,471 L536,472 L536,473 L537,474 L537,480 L536,481 L536,482 L534,484 L530,484 L529,483 L528,483 L526,481 L526,480 L524,478 L524,476 L523,475 L523,469 L524,468 L524,467 L525,466 ZM916,438 L920,438 L921,439 L922,439 L923,440 L923,441 L924,442 L924,443 L925,444 L925,452 L924,453 L924,454 L922,456 L921,456 L920,457 L919,457 L918,456 L917,456 L914,453 L914,452 L913,451 L913,446 L912,445 L913,444 L913,441 ZM525,439 L526,438 L529,438 L533,442 L533,450 L532,451 L532,453 L528,457 L525,457 L522,454 L522,453 L521,452 L521,444 L522,443 L522,442 L523,441 L523,440 L524,439 ZM907,414 L910,414 L911,415 L912,415 L914,417 L914,418 L916,420 L916,421 L917,422 L917,427 L916,428 L916,429 L915,430 L911,430 L906,425 L906,424 L905,423 L905,421 L904,420 L904,417 ZM535,415 L536,414 L539,414 L541,416 L541,417 L542,418 L542,420 L541,421 L541,423 L540,424 L540,425 L535,430 L531,430 L529,428 L529,427 L528,426 L528,425 L529,424 L529,422 L530,421 L530,420 L532,418 L532,417 L534,415 ZM551,397 L552,396 L556,396 L557,397 L557,398 L558,399 L558,401 L557,402 L557,403 L551,409 L549,409 L548,410 L547,409 L546,409 L544,407 L544,404 L545,403 L545,402 L550,397 ZM891,396 L892,395 L894,395 L895,396 L896,396 L900,400 L900,401 L901,402 L901,403 L902,404 L902,407 L900,409 L896,409 L895,408 L894,408 L891,405 L891,404 L889,402 L889,397 L890,396 ZM873,375 L875,375 L876,376 L877,376 L881,380 L881,381 L883,383 L883,388 L882,389 L881,389 L880,390 L879,390 L878,389 L877,389 L873,385 L873,384 L872,383 L872,382 L871,381 L871,377 ZM571,376 L572,375 L573,376 L574,376 L576,378 L576,380 L575,381 L575,383 L573,385 L573,386 L570,389 L569,389 L568,390 L565,390 L563,388 L563,385 L564,384 L564,383 L565,382 L565,381 L570,376 ZM576,357 L577,356 L580,356 L582,358 L582,359 L583,360 L583,361 L582,362 L582,365 L578,369 L577,369 L575,367 L575,366 L574,365 L574,362 L575,361 L575,359 L576,358 ZM867,355 L868,355 L869,356 L870,356 L871,357 L871,358 L872,359 L872,361 L873,362 L873,364 L872,365 L872,366 L869,369 L868,369 L865,366 L865,365 L864,364 L864,358 ZM869,338 L871,338 L873,340 L873,341 L874,342 L873,343 L873,345 L872,346 L872,347 L871,348 L870,348 L869,349 L868,349 L866,347 L866,341 ZM575,338 L577,338 L580,341 L580,342 L581,343 L581,346 L578,349 L577,349 L573,345 L573,340 ZM1046,201 L1045,202 L1045,204 L1046,205 L1047,205 L1054,212 L1054,213 L1066,225 L1066,226 L1071,231 L1071,232 L1076,237 L1076,238 L1079,241 L1079,242 L1082,245 L1082,246 L1085,249 L1085,250 L1087,252 L1087,253 L1089,255 L1089,256 L1091,258 L1091,259 L1093,261 L1093,262 L1095,264 L1095,265 L1097,267 L1097,268 L1098,269 L1098,270 L1101,270 L1101,269 L1100,268 L1100,267 L1099,266 L1099,265 L1097,263 L1097,262 L1095,260 L1095,259 L1093,257 L1093,256 L1091,254 L1091,253 L1088,250 L1088,249 L1086,247 L1086,246 L1083,243 L1083,242 L1080,239 L1080,238 L1077,235 L1077,234 L1072,229 L1072,228 L1066,222 L1066,221 ZM400,201 L380,221 L380,222 L374,228 L374,229 L370,233 L370,234 L366,238 L366,239 L363,242 L363,243 L360,246 L360,247 L358,249 L358,250 L356,252 L356,253 L354,255 L354,256 L352,258 L352,259 L350,261 L350,262 L348,264 L348,265 L347,266 L347,267 L345,269 L346,270 L348,270 L349,269 L349,268 L350,267 L350,266 L352,264 L352,263 L353,262 L353,261 L355,259 L355,258 L357,256 L357,255 L360,252 L360,251 L362,249 L362,248 L365,245 L365,244 L367,242 L367,241 L371,237 L371,236 L375,232 L375,231 L381,225 L381,224 L402,203 L402,202 L401,201 ZM1032,182 L1031,183 L1029,183 L1025,187 L1025,189 L1024,190 L1024,195 L1025,196 L1025,197 L1026,198 L1026,199 L1028,201 L1029,201 L1030,202 L1037,202 L1038,201 L1039,201 L1043,197 L1043,195 L1044,194 L1044,190 L1043,189 L1043,188 L1042,187 L1042,186 L1040,184 L1039,184 L1038,183 L1037,183 L1036,182 ZM410,182 L409,183 L408,183 L403,188 L403,196 L404,197 L404,198 L407,201 L408,201 L409,202 L416,202 L417,201 L418,201 L421,198 L421,197 L422,196 L422,194 L423,193 L422,192 L422,189 L421,188 L421,187 L417,183 L415,183 L414,182 ZM723,175 L723,180 L722,181 L722,184 L721,185 L721,186 L720,187 L720,188 L719,189 L719,190 L711,198 L710,198 L709,199 L708,199 L707,200 L706,200 L705,201 L704,201 L703,202 L700,202 L699,203 L696,203 L696,204 L701,204 L702,205 L705,205 L706,206 L707,206 L708,207 L709,207 L710,208 L711,208 L719,216 L719,217 L720,218 L720,219 L721,220 L721,222 L722,223 L722,225 L723,226 L723,231 L723,230 L724,229 L724,224 L725,223 L725,221 L726,220 L726,219 L727,218 L727,217 L729,215 L729,214 L734,209 L735,209 L737,207 L738,207 L739,206 L741,206 L742,205 L744,205 L745,204 L750,204 L751,203 L747,203 L746,202 L744,202 L743,201 L741,201 L740,200 L739,200 L738,199 L737,199 L735,197 L734,197 L729,192 L729,191 L727,189 L727,188 L726,187 L726,186 L725,185 L725,182 L724,181 L724,176 ZM742,70 L742,72 L750,72 L751,73 L761,73 L762,74 L769,74 L770,75 L775,75 L776,76 L781,76 L782,77 L785,77 L786,78 L790,78 L791,79 L795,79 L796,80 L799,80 L800,81 L803,81 L804,82 L807,82 L808,83 L810,83 L811,84 L813,84 L814,85 L816,85 L817,86 L819,86 L820,87 L822,87 L823,88 L825,88 L826,89 L828,89 L829,90 L831,90 L832,91 L834,91 L835,92 L836,92 L837,93 L839,93 L840,94 L841,94 L842,95 L843,95 L844,96 L846,96 L847,97 L848,97 L849,98 L850,98 L851,99 L852,99 L853,100 L854,100 L855,101 L856,101 L857,102 L858,102 L859,103 L860,103 L861,104 L862,104 L863,105 L864,105 L866,103 L865,103 L863,101 L862,101 L861,100 L859,100 L858,99 L857,99 L856,98 L855,98 L854,97 L853,97 L852,96 L851,96 L850,95 L849,95 L848,94 L846,94 L845,93 L844,93 L843,92 L842,92 L841,91 L839,91 L838,90 L836,90 L835,89 L834,89 L833,88 L831,88 L830,87 L828,87 L827,86 L826,86 L825,85 L823,85 L822,84 L819,84 L818,83 L816,83 L815,82 L813,82 L812,81 L809,81 L808,80 L806,80 L805,79 L802,79 L801,78 L798,78 L797,77 L794,77 L793,76 L790,76 L789,75 L785,75 L784,74 L779,74 L778,73 L772,73 L771,72 L765,72 L764,71 L756,71 L755,70 ZM696,70 L695,71 L685,71 L684,72 L677,72 L676,73 L671,73 L670,74 L665,74 L664,75 L660,75 L659,76 L655,76 L654,77 L651,77 L650,78 L647,78 L646,79 L643,79 L642,80 L640,80 L639,81 L636,81 L635,82 L633,82 L632,83 L630,83 L629,84 L627,84 L626,85 L623,85 L622,86 L621,86 L620,87 L618,87 L617,88 L616,88 L615,89 L613,89 L612,90 L610,90 L609,91 L608,91 L607,92 L605,92 L604,93 L603,93 L602,94 L601,94 L600,95 L599,95 L598,96 L596,96 L595,97 L594,97 L593,98 L592,98 L591,99 L590,99 L589,100 L588,100 L587,101 L586,101 L585,102 L584,102 L583,103 L582,103 L584,105 L585,105 L586,104 L587,104 L588,103 L589,103 L590,102 L591,102 L592,101 L593,101 L594,100 L595,100 L596,99 L597,99 L598,98 L599,98 L600,97 L601,97 L602,96 L604,96 L605,95 L606,95 L607,94 L609,94 L610,93 L611,93 L612,92 L613,92 L614,91 L616,91 L617,90 L619,90 L620,89 L621,89 L622,88 L624,88 L625,87 L627,87 L628,86 L630,86 L631,85 L633,85 L634,84 L636,84 L637,83 L640,83 L641,82 L643,82 L644,81 L647,81 L648,80 L652,80 L653,79 L656,79 L657,78 L661,78 L662,77 L666,77 L667,76 L672,76 L673,75 L679,75 L680,74 L688,74 L689,73 L697,73 L698,72 L705,72 L705,70 ZM719,55 L718,56 L717,56 L715,58 L714,58 L714,59 L712,61 L712,62 L711,63 L711,65 L710,66 L710,70 L711,71 L711,73 L712,74 L712,75 L717,80 L718,80 L719,81 L727,81 L728,80 L730,80 L735,75 L735,74 L736,73 L736,70 L737,69 L737,67 L736,66 L736,63 L735,62 L735,61 L730,56 L728,56 L727,55 Z"/>
</svg>
